<?xml version="1.0" standalone="no"?>
<!DOCTYPE svg PUBLIC "-//W3C//DTD SVG 20010904//EN"
 "http://www.w3.org/TR/2001/REC-SVG-20010904/DTD/svg10.dtd">
<svg version="1.0" xmlns="http://www.w3.org/2000/svg"
 width="512.000000pt" height="512.000000pt" viewBox="0 0 512.000000 512.000000"
 preserveAspectRatio="xMidYMid meet">
<metadata>
Created by potrace 1.14, written by Peter Selinger 2001-2017
</metadata>
<g transform="translate(0.000000,512.000000) scale(0.100000,-0.100000)"
fill="#000000" stroke="none">
<path d="M1692 5109 c-72 -12 -190 -62 -262 -111 -137 -91 -252 -259 -290
-423 -22 -93 -20 -252 3 -327 8 -27 13 -48 11 -48 -2 0 14 -37 37 -82 46 -92
88 -148 166 -223 l52 -50 -13 -61 c-8 -37 -10 -69 -4 -84 24 -65 111 -67 136
-3 9 25 25 98 22 105 -1 2 13 43 30 91 132 373 445 634 829 690 331 49 656
-61 891 -303 191 -195 289 -433 293 -705 1 -128 -4 -169 -33 -257 -57 -170
-191 -292 -387 -353 -42 -13 -42 -13 -30 9 44 78 59 235 32 347 -60 253 -246
432 -505 486 -54 12 -207 5 -270 -12 -158 -41 -329 -177 -397 -315 -56 -115
-68 -164 -68 -295 0 -109 3 -125 26 -176 l27 -56 -42 12 c-109 34 -200 89
-271 163 -59 62 -97 129 -124 220 -23 76 -44 102 -85 102 -31 0 -76 -40 -76
-67 1 -68 69 -229 132 -311 22 -29 39 -54 37 -56 -2 -2 -20 -11 -39 -21 -60
-31 -196 -123 -245 -167 -207 -185 -349 -418 -411 -673 -26 -106 -29 -164 -29
-500 l0 -330 29 -57 c46 -93 155 -177 251 -192 17 -2 31 -5 32 -5 1 -1 -5 -20
-13 -43 -9 -25 -18 -93 -21 -160 -5 -115 -5 -117 20 -142 33 -33 71 -33 102
-1 22 21 25 33 26 107 1 108 5 131 35 194 29 61 97 127 162 157 44 21 65 22
311 25 293 4 325 -1 408 -61 52 -37 108 -116 124 -177 10 -38 16 -455 10 -703
-1 -28 -10 -47 -35 -74 -29 -32 -39 -37 -82 -37 l-48 -1 -1 186 -1 187 -32 65
c-65 131 -157 181 -333 181 -96 0 -111 -3 -164 -29 -69 -33 -124 -88 -157
-153 -21 -43 -23 -63 -26 -244 l-4 -198 -36 0 c-21 0 -51 9 -68 19 -48 30 -64
74 -64 185 0 90 -2 99 -25 121 -29 30 -64 32 -96 6 -22 -18 -24 -28 -27 -124
-5 -136 12 -198 70 -261 24 -26 66 -57 93 -71 l50 -24 1226 0 c1393 -1 1284
-8 1374 83 82 82 83 92 84 502 0 310 -2 359 -18 417 -19 71 -17 77 30 77 53 0
178 89 218 153 48 79 51 111 51 426 0 163 -3 312 -6 331 -28 187 -79 361 -116
393 -39 33 -99 17 -116 -31 -7 -21 -5 -40 9 -78 30 -79 58 -183 69 -264 12
-83 16 -288 5 -298 -11 -11 -385 -8 -386 3 0 5 -2 78 -4 160 -4 169 -9 225
-31 334 -48 239 -146 433 -300 589 l-71 74 41 20 42 20 59 -30 c150 -73 251
-148 363 -266 35 -37 71 -66 82 -66 64 0 101 60 71 113 -43 76 -250 251 -375
317 -36 19 -66 40 -66 47 0 7 4 13 8 13 14 0 79 100 111 171 67 148 85 409 41
594 l-9 40 63 62 c94 90 148 176 195 308 27 77 35 235 16 338 -44 251 -263
482 -517 546 -93 24 -266 22 -353 -3 -175 -51 -301 -144 -411 -305 l-31 -46
-112 -1 -113 0 -31 45 c-115 170 -269 278 -448 317 -49 10 -226 13 -277 3z
m236 -149 c86 -18 209 -81 269 -139 51 -49 89 -98 82 -105 -2 -2 -35 -13 -73
-25 -77 -23 -64 -27 -136 39 -56 51 -170 89 -256 85 -103 -5 -167 -29 -245
-92 -93 -75 -141 -179 -142 -304 0 -91 24 -166 77 -238 l25 -34 -35 -69 -35
-70 -31 28 c-122 114 -183 330 -142 504 67 289 355 477 642 420z m1555 -23
c232 -89 373 -300 363 -541 -6 -132 -59 -260 -144 -348 -37 -39 -52 -47 -52
-27 0 5 -13 37 -29 69 l-30 60 23 27 c97 119 106 315 22 447 -141 221 -420
257 -615 80 l-37 -33 -70 21 c-38 11 -71 22 -73 24 -13 11 68 99 142 153 98
71 199 100 337 96 73 -2 111 -8 163 -28z m-1555 -297 c67 -35 68 -33 -20 -90
-48 -31 -128 -99 -190 -160 l-107 -107 -17 43 c-21 56 -24 119 -7 170 17 49
73 118 114 139 70 37 164 39 227 5z m1473 3 c115 -51 172 -190 127 -310 l-18
-50 -108 106 c-62 62 -142 130 -190 161 l-83 53 31 20 c76 48 161 55 241 20z
m-741 -988 c69 -12 164 -61 222 -115 104 -95 159 -225 155 -368 -5 -168 -91
-244 -310 -274 -79 -10 -330 -6 -390 7 -143 30 -225 95 -246 197 -33 153 15
303 134 423 114 115 266 160 435 130z m-921 -764 l38 -20 -73 -74 c-40 -41
-98 -113 -129 -161 -51 -78 -126 -239 -140 -299 -51 -223 -56 -267 -61 -462
-1 -77 -3 -147 -3 -155 -1 -13 -30 -15 -196 -15 l-195 0 -1 45 c-1 83 2 209 6
232 29 172 56 260 116 381 106 213 272 381 489 496 52 28 99 51 103 51 4 0 25
-9 46 -19z m300 -107 c20 -4 41 -7 46 -8 6 -2 33 -6 60 -10 28 -4 61 -10 75
-12 34 -6 272 -18 345 -18 76 0 299 13 345 19 19 3 49 8 65 11 17 3 48 8 70
11 22 3 59 11 82 18 41 12 44 12 85 -18 154 -110 284 -312 338 -522 36 -139
43 -234 45 -567 l1 -327 -137 0 c-148 1 -154 3 -157 54 -6 103 -57 253 -117
345 -105 161 -249 257 -459 305 -187 43 -404 8 -574 -93 -185 -110 -300 -303
-337 -564 l-6 -46 -142 0 -143 1 2 336 c1 355 10 451 56 600 60 194 177 368
321 475 41 30 51 34 74 25 14 -5 42 -12 62 -15z m692 -875 c233 -63 384 -235
417 -479 10 -70 13 -66 -70 -74 -197 -19 -369 -177 -410 -377 -20 -102 -16
-740 5 -792 l16 -37 -128 0 -128 0 16 48 c14 40 16 101 15 393 -1 382 -5 415
-61 519 -43 80 -81 121 -156 171 -70 45 -141 70 -222 78 l-60 6 3 40 c14 177
123 360 262 439 157 89 328 111 501 65z m-1360 -364 c6 -53 -5 -185 -18 -212
-28 -59 -109 -113 -170 -113 -48 0 -102 20 -137 51 -56 48 -72 109 -67 254 l1
30 195 0 c124 0 195 -4 196 -10z m2767 -70 c2 -44 -2 -97 -8 -117 -28 -97
-136 -156 -235 -129 -51 14 -112 64 -130 107 -16 38 -26 212 -13 216 5 2 93 3
196 3 l187 0 3 -80z m-494 -286 c73 -27 148 -96 183 -167 l28 -57 3 -360 c2
-346 1 -361 -18 -393 -22 -36 -72 -62 -119 -62 l-29 0 -4 198 c-4 223 -12 252
-90 331 -72 74 -141 98 -278 96 -79 -1 -104 -6 -150 -27 -79 -36 -125 -80
-162 -155 l-32 -65 -2 -182 c-1 -99 -2 -185 -3 -190 0 -5 -22 -6 -47 -3 -51 5
-97 41 -111 86 -10 31 -9 648 1 706 13 78 69 162 141 212 68 47 104 52 377 53
236 0 262 -2 312 -21z m-1726 -591 c66 -44 76 -78 76 -273 l1 -170 -207 -3
-208 -2 0 170 c0 193 7 220 64 266 43 35 68 41 163 39 59 -2 79 -6 111 -27z
m1527 10 c38 -20 71 -55 84 -91 6 -16 11 -102 11 -198 l0 -169 -207 2 -208 3
0 155 c-1 85 3 172 9 194 11 46 64 102 109 114 50 13 168 7 202 -10z"/>
</g>
</svg>
